HIERARCHY
ROOT Hips
{
	OFFSET 0.00000 0.00000 0.00000
	CHANNELS 6 Xposition Yposition Zposition Zrotation Yrotation Xrotation 
	JOINT LHipJoint
	{
		OFFSET 0 0 0
		CHANNELS 3 Zrotation Yrotation Xrotation
		JOINT LeftHip
		{
			OFFSET 1.23340 -1.80723 0.69510
			CHANNELS 3 Zrotation Yrotation Xrotation
			JOINT LeftKnee
			{
				OFFSET 2.50056 -6.87023 0.00000
				CHANNELS 3 Zrotation Yrotation Xrotation
				JOINT LeftAnkle
				{
					OFFSET 2.85931 -7.85591 0.00000
					CHANNELS 3 Zrotation Yrotation Xrotation
					JOINT LeftToe
					{
						OFFSET 0.21001 -0.57700 2.07823
						CHANNELS 3 Zrotation Yrotation Xrotation
						End Site
						{
							OFFSET 0.00000 -0.00000 1.08338
						}
					}
				}
			}
		}
	}
	JOINT RHipJoint
	{
		OFFSET 0 0 0
		CHANNELS 3 Zrotation Yrotation Xrotation
		JOINT RightHip
		{
			OFFSET -1.40842 -1.80723 0.69510
			CHANNELS 3 Zrotation Yrotation Xrotation
			JOINT RightKnee
			{
				OFFSET -2.54876 -7.00266 0.00000
				CHANNELS 3 Zrotation Yrotation Xrotation
				JOINT RightAnkle
				{
					OFFSET -2.74835 -7.55104 0.00000
					CHANNELS 3 Zrotation Yrotation Xrotation
					JOINT RightToe
					{
						OFFSET -0.22633 -0.62184 2.00890
						CHANNELS 3 Zrotation Yrotation Xrotation
						End Site
						{
							OFFSET -0.00000 -0.00000 1.05493
						}
					}
				}
			}
		}
	}
	JOINT lowerback
	{
		OFFSET 0 0 0
		CHANNELS 3 Zrotation Yrotation Xrotation
		JOINT Chest
		{
			OFFSET -0.02340 2.02740 -0.12728
			CHANNELS 3 Zrotation Yrotation Xrotation
			JOINT Chest2
			{
				OFFSET -0.00862 2.03614 -0.01188
				CHANNELS 3 Zrotation Yrotation Xrotation
				JOINT lowerneck
				{
					OFFSET 0 0 0
					CHANNELS 3 Zrotation Yrotation Xrotation
					JOINT Neck
					{
						OFFSET 0.03380 1.76650 0.27670
						CHANNELS 3 Zrotation Yrotation Xrotation
						JOINT Head
						{
							OFFSET -0.01114 1.80516 -0.21451
							CHANNELS 3 Zrotation Yrotation Xrotation
							End Site
							{
								OFFSET -0.00766 1.81942 -0.10287
							}
						}
					}
				}
				JOINT LeftCollar
				{
					OFFSET 0 0 0
					CHANNELS 3 Zrotation Yrotation Xrotation
					JOINT LeftShoulder
					{
						OFFSET 3.22358 1.39475 0.18630
CHANNELS 3 Zrotation Xrotation Yrotation
						JOINT LeftElbow
						{
OFFSET 0 -5.450770 0.000000
CHANNELS 3 Zrotation Xrotation Yrotation
							JOINT LeftWrist
							{
OFFSET 0 -3.054880 0.000000
CHANNELS 3 Zrotation Xrotation Yrotation
								JOINT lhand
								{
									OFFSET 0 0 0
CHANNELS 3 Zrotation Xrotation Yrotation
									JOINT LFingers
									{
OFFSET 0 -0.638820 0.000000
CHANNELS 3 Zrotation Xrotation Yrotation
										End Site
										{
OFFSET 0 -0.515030 0.000000
										}
									}
								}
								JOINT LThumb
								{
OFFSET 0 0.000000 0.000000
CHANNELS 3 Zrotation Xrotation Yrotation
									End Site
									{
OFFSET 0 -0.522900 0.522900
									}
								}
							}
						}
					}
				}
				JOINT RightCollar
				{
					OFFSET 0 0 0
					CHANNELS 3 Zrotation Yrotation Xrotation
					JOINT RightShoulder
					{
						OFFSET -3.57143 1.14055 0.30691
CHANNELS 3 Zrotation Xrotation Yrotation
						JOINT RightElbow
						{
OFFSET 0 -4.887020 -0.000000
CHANNELS 3 Zrotation Xrotation Yrotation
							JOINT RightWrist
							{
OFFSET 0 -3.226030 0.000000
CHANNELS 3 Zrotation Xrotation Yrotation
								JOINT rhand
								{
									OFFSET 0 0 0
CHANNELS 3 Zrotation Xrotation Yrotation
									JOINT RFingers
									{
OFFSET 0 -0.716290 0.000000
CHANNELS 3 Zrotation Xrotation Yrotation
										End Site
										{
OFFSET 0 -0.577490 0.000000
										}
									}
								}
								JOINT RThumb
								{
OFFSET 0 0.000000 0.000000
CHANNELS 3 Zrotation Xrotation Yrotation
									End Site
									{
OFFSET 0 -0.586310 0.586310
									}
								}
							}
						}
					}
				}
			}
		}
	}
}
MOTION
Frames: 12
Frame Time: 0.008333333333333333
12.931700 17.938900 13.932200 177.385000 -38.128100 -166.698000 0.000000 0.000000 0.000000 -15.864300 -1.995500 -31.650400 6.448200 14.849000 46.755000 0.406700 -9.532800 -12.304300 0.855800 -5.899700 -16.493700 0.000000 0.000000 0.000000 18.774700 3.497300 -19.235700 -2.638800 -10.086000 29.255800 -1.067900 13.470500 -19.430300 -0.023100 -0.981400 2.697700 -1.271100 -1.292100 -7.034600 -0.207700 -1.749800 -2.687300 0.359500 -0.920200 1.201300 0.191900 -0.460200 -16.565100 0.935400 -1.501400 23.702200 0.055900 -0.771500 10.324100 0.000000 0.000000 0.000000 8.295600 6.125500 -39.730900 18.518400 -28.815900 4.796500 14.552900 -1.397300 -26.124600 0.000000 0.000000 0.000000 -7.125000 0.000000 0.000000 -16.628500 56.068000 4.604800 0.000000 0.000000 0.000000 -2.545800 1.607500 44.438000 -13.208200 -21.591500 -2.529400 -23.717900 3.354500 -10.012800 0.000000 0.000000 0.000000 7.125000 0.000000 -0.000000 2.333400 19.069400 1.444200
12.938701 17.942450 13.886575 177.409394 -38.068063 -166.699830 0.000000 0.000000 0.000000 -15.671713 -2.224612 -32.810491 6.970552 15.305047 48.759262 0.323297 -8.700783 -11.028678 0.602234 -4.966615 -13.813537 0.000000 0.000000 0.000000 18.942534 3.009819 -19.232929 -2.610681 -10.036385 29.094661 -1.021886 13.872870 -19.194620 -0.026051 -1.040428 2.860098 -1.188000 -1.237235 -7.032742 -0.240956 -1.672500 -2.536188 0.282775 -0.879691 1.351461 0.362518 -0.511547 -16.352491 0.861485 -1.565415 23.232863 -0.002670 -0.787789 10.112613 0.000000 0.000000 0.000000 8.418392 6.055835 -39.562188 18.593735 -28.910714 4.832862 14.920954 -1.441794 -26.361937 0.000000 0.000000 0.000000 -7.125000 0.000000 0.000000 -16.388497 56.371718 4.657437 0.000000 0.000000 0.000000 -2.457443 1.362752 44.071914 -13.091774 -21.421483 -2.486665 -23.649948 3.527359 -10.300136 0.000000 0.000000 0.000000 7.125000 0.000000 0.000000 2.393117 18.763747 1.497499
12.944801 17.940822 13.842939 177.407214 -37.931904 -166.595092 0.000000 0.000000 0.000000 -15.557752 -2.372306 -34.110654 7.495103 15.733700 50.720756 0.299433 -7.790393 -10.431476 0.588081 -4.909715 -13.651243 0.000000 0.000000 0.000000 19.066877 2.864877 -19.244935 -2.582363 -9.986194 28.931902 -1.006378 13.943675 -19.098021 -0.022198 -0.958718 2.635275 -1.146043 -1.193940 -7.079175 -0.263216 -1.609205 -2.404587 0.238439 -0.846663 1.510134 0.241790 -0.449876 -16.724626 1.237745 -1.551944 23.451844 0.149276 -0.744731 10.267021 0.000000 0.000000 0.000000 8.488756 5.984842 -39.272589 18.616480 -28.939292 4.843834 15.129403 -1.397921 -26.396358 0.000000 0.000000 0.000000 -7.125000 0.000000 0.000000 -16.194853 56.447764 4.630485 0.000000 0.000000 0.000000 -2.410803 1.093157 43.912928 -13.047929 -21.357393 -2.470732 -23.605845 3.530915 -10.342533 0.000000 0.000000 0.000000 7.125000 0.000000 0.000000 2.426099 18.721602 1.520410
12.946583 17.935650 13.796073 177.422506 -37.839771 -166.533319 0.000000 0.000000 0.000000 -15.535634 -2.427612 -35.357140 7.982189 16.105464 52.497418 0.320156 -6.848091 -10.462135 0.627268 -5.067152 -14.100363 0.000000 0.000000 0.000000 19.228139 2.686894 -19.271212 -2.564498 -9.954163 28.828555 -1.007594 13.835871 -19.075994 -0.008551 -0.597092 1.640703 -1.108517 -1.169675 -7.002312 -0.245606 -1.577605 -2.363961 0.239295 -0.829761 1.508487 0.518839 -0.521997 -16.386942 0.769324 -1.566112 22.897923 -0.059037 -0.776731 9.996713 0.000000 0.000000 0.000000 8.542193 6.107555 -39.099037 18.648218 -28.979269 4.859201 15.251168 -1.401371 -26.330091 0.000000 0.000000 0.000000 -7.125000 0.000000 0.000000 -16.032246 56.408574 4.566930 0.000000 0.000000 0.000000 -2.425679 1.062494 43.702173 -13.046346 -21.355086 -2.470155 -23.621644 3.619760 -10.279361 0.000000 0.000000 0.000000 7.125000 0.000000 0.000000 2.412404 18.788689 1.508152
12.946055 17.934678 13.743708 177.391078 -37.646895 -166.456644 0.000000 0.000000 0.000000 -15.615129 -2.345211 -36.512969 8.402537 16.406583 53.998466 0.347351 -6.345826 -10.730742 0.748879 -5.522556 -15.406480 0.000000 0.000000 0.000000 19.259398 2.667755 -19.147227 -2.556832 -9.940554 28.784449 -0.971421 14.248823 -18.925155 -0.025254 -0.986498 2.711988 -1.154519 -1.122197 -6.974168 -0.223317 -1.508344 -2.304550 0.293546 -0.794088 1.554868 0.384055 -0.506773 -16.496133 0.908956 -1.546362 22.968402 0.014389 -0.762117 10.044983 0.000000 0.000000 0.000000 8.549497 6.208558 -38.865403 18.678650 -29.017399 4.873986 15.380917 -1.215245 -26.473114 0.000000 0.000000 0.000000 -7.125000 0.000000 0.000000 -15.980785 56.573807 4.616062 0.000000 0.000000 0.000000 -2.549870 1.039473 43.812806 -13.113963 -21.453983 -2.494796 -23.592448 3.378863 -10.310620 0.000000 0.000000 0.000000 7.125000 0.000000 0.000000 2.434296 18.757289 1.523628
12.941637 17.934217 13.691833 177.174357 -37.427018 -166.286374 0.000000 0.000000 0.000000 -15.876987 -2.346788 -37.546191 8.757141 16.648721 55.246308 0.373348 -6.158202 -11.051736 0.839523 -5.844666 -16.334290 0.000000 0.000000 0.000000 19.113515 2.634415 -18.975887 -2.551437 -9.930830 28.753183 -0.942682 14.567789 -18.807853 -0.045871 -1.382254 3.801335 -1.288009 -1.079965 -6.938043 -0.283493 -1.439252 -2.243253 0.312191 -0.758840 1.598485 0.284710 -0.446217 -16.653448 1.081397 -1.488930 23.137576 0.097878 -0.724362 10.137776 0.000000 0.000000 0.000000 8.612731 6.328450 -38.735376 18.690018 -29.031650 4.879548 15.719522 -1.022469 -26.546208 0.000000 0.000000 0.000000 -7.125000 0.000000 0.000000 -15.674129 56.714760 4.578366 0.000000 0.000000 0.000000 -2.537112 0.866554 43.988786 -13.131975 -21.480302 -2.501399 -23.635531 3.129795 -10.357455 0.000000 0.000000 0.000000 7.125000 0.000000 0.000000 2.405749 18.702948 1.508606
12.937031 17.934800 13.640346 177.132693 -37.391582 -166.186674 0.000000 0.000000 0.000000 -15.922635 -2.535957 -38.572837 9.050040 16.839434 56.262400 0.375694 -6.298053 -11.107453 0.830708 -5.814661 -16.247647 0.000000 0.000000 0.000000 19.196013 2.501705 -18.880481 -2.535355 -9.901913 28.659701 -0.935060 14.685874 -18.788128 -0.055710 -1.518534 4.176902 -1.295381 -1.118902 -6.840215 -0.288680 -1.488847 -2.200467 0.308540 -0.782489 1.589173 0.381151 -0.344648 -16.927269 1.085443 -1.383001 23.330385 0.095825 -0.664820 10.258621 0.000000 0.000000 0.000000 8.701253 6.425041 -38.598010 18.691610 -29.033637 4.880289 15.764572 -0.996643 -26.698820 0.000000 0.000000 0.000000 -7.125000 0.000000 0.000000 -15.715340 56.872313 4.651217 0.000000 0.000000 0.000000 -2.439421 0.661030 43.916618 -13.046692 -21.355621 -2.470297 -23.832366 2.785814 -10.816536 0.000000 0.000000 0.000000 7.125000 0.000000 0.000000 2.287022 18.187323 1.459636
12.928262 17.934311 13.585607 177.202312 -37.309515 -166.250215 0.000000 0.000000 0.000000 -15.871010 -2.564959 -39.511415 9.292481 16.992064 57.095826 0.355799 -6.730674 -10.922012 0.817657 -5.769758 -16.117947 0.000000 0.000000 0.000000 19.373841 2.414994 -18.605223 -2.507659 -9.851793 28.498097 -0.913788 14.784834 -18.659926 -0.063941 -1.631341 4.487917 -1.226498 -1.117649 -6.716105 -0.260741 -1.488927 -2.132742 0.300463 -0.780741 1.589093 0.485904 -0.345187 -16.872623 0.921845 -1.357818 23.179483 0.025020 -0.661061 10.191475 0.000000 0.000000 0.000000 8.784286 6.487108 -38.563199 18.605581 -28.925590 4.838580 15.751496 -0.913782 -26.775748 0.000000 0.000000 0.000000 -7.125000 0.000000 0.000000 -15.773565 56.944178 4.696650 0.000000 0.000000 0.000000 -2.505915 0.564399 44.262776 -13.054972 -21.367685 -2.473278 -24.169322 1.796629 -11.500520 0.000000 0.000000 0.000000 7.125000 0.000000 0.000000 2.083356 17.412870 1.365004
12.921160 17.930392 13.530806 177.458521 -37.094820 -166.510725 0.000000 0.000000 0.000000 -15.690238 -2.469944 -40.325643 9.477870 17.105535 57.728344 0.318117 -7.227130 -10.525616 0.674598 -5.250529 -14.624725 0.000000 0.000000 0.000000 19.723767 2.479874 -18.254631 -2.477942 -9.797631 28.323809 -0.956433 14.574349 -18.913784 -0.018941 -0.863507 2.373545 -0.981190 -0.952068 -6.481185 -0.224140 -1.284840 -2.122676 0.221471 -0.677032 1.461580 0.364167 -0.415286 -16.597265 0.953772 -1.428650 23.059513 0.048449 -0.703728 10.097031 0.000000 0.000000 0.000000 8.859671 6.658754 -38.729902 18.531803 -28.832717 4.802985 15.810636 -0.685323 -26.811197 0.000000 0.000000 0.000000 -7.125000 0.000000 0.000000 -15.732874 56.991040 4.702078 0.000000 0.000000 0.000000 -2.480671 0.633662 43.991889 -13.081691 -21.406786 -2.483069 -24.298091 1.686329 -11.638262 0.000000 0.000000 0.000000 7.125000 0.000000 0.000000 2.000257 17.250471 1.317940
12.908743 17.935101 13.477767 176.908818 -37.053357 -165.941823 0.000000 0.000000 0.000000 -16.266270 -2.847042 -41.312389 9.572290 17.162174 58.048985 0.314855 -7.345398 -10.512780 0.607726 -4.989406 -13.878351 0.000000 0.000000 0.000000 19.362807 2.035293 -18.496609 -2.453687 -9.753226 28.181222 -0.986608 14.718498 -19.185837 -0.001049 -0.193216 0.530782 -1.371910 -1.000984 -6.589639 -0.292689 -1.327686 -2.178809 0.365198 -0.700118 1.471339 0.170353 -0.355979 -16.808143 1.085097 -1.353709 23.449158 0.134669 -0.675062 10.279877 0.000000 0.000000 0.000000 8.849051 6.790817 -38.698327 18.472061 -28.757451 4.774231 15.705491 -0.771733 -26.838801 0.000000 0.000000 0.000000 -7.125000 0.000000 0.000000 -15.857794 56.995717 4.742566 0.000000 0.000000 0.000000 -2.604481 0.636342 44.078382 -13.163765 -21.526695 -2.513074 -24.247184 1.703982 -11.590380 0.000000 0.000000 0.000000 7.125000 0.000000 0.000000 2.033353 17.307665 1.337241
12.896503 17.936167 13.422151 176.705679 -36.941388 -165.741679 0.000000 0.000000 0.000000 -16.566231 -3.016633 -42.167522 9.605632 17.182095 58.162122 0.321893 -7.429124 -10.630295 0.702060 -5.354604 -14.923057 0.000000 0.000000 0.000000 19.248739 2.027356 -18.344647 -2.441707 -9.731148 28.110508 -0.978732 14.934864 -19.197591 -0.005639 -0.467692 1.285038 -1.501791 -0.990712 -6.545372 -0.330435 -1.306967 -2.196135 0.401933 -0.689911 1.430342 0.035362 -0.293490 -17.050601 1.230691 -1.299912 23.895809 0.213361 -0.650286 10.490275 0.000000 0.000000 0.000000 8.912330 6.897202 -38.671615 18.404854 -28.672409 4.741922 15.514511 -0.909279 -26.876263 0.000000 0.000000 0.000000 -7.125000 0.000000 0.000000 -16.077197 56.991986 4.808994 0.000000 0.000000 0.000000 -2.690563 0.665480 44.314780 -13.282894 -21.700277 -2.556942 -24.048590 1.728799 -11.577239 0.000000 0.000000 0.000000 7.125000 0.000000 0.000000 2.171433 17.341630 1.426479
12.879992 17.930355 13.366981 176.645399 -36.865631 -165.679648 0.000000 0.000000 0.000000 -16.790430 -3.160678 -42.885183 9.570498 17.161169 58.042945 0.331237 -7.471332 -10.767467 0.871700 -5.941522 -16.618245 0.000000 0.000000 0.000000 19.217037 2.209981 -17.984036 -2.434156 -9.717231 28.065849 -0.951266 15.207109 -19.083919 -0.040952 -1.296806 3.566018 -1.427165 -0.941994 -6.528982 -0.413939 -1.243108 -2.141613 0.278931 -0.657784 1.472915 0.115091 -0.283017 -17.115192 1.222927 -1.317280 24.029535 0.193795 -0.653684 10.551315 0.000000 0.000000 0.000000 9.099279 6.893378 -38.726025 18.297411 -28.536231 4.690448 15.348664 -0.906205 -26.790943 0.000000 0.000000 0.000000 -7.125000 0.000000 0.000000 -16.198360 56.874705 4.800244 0.000000 0.000000 0.000000 -2.588707 0.567340 44.236171 -13.329885 -21.768629 -2.574312 -24.096662 1.808809 -11.539597 0.000000 0.000000 0.000000 7.125000 0.000000 0.000000 2.135829 17.377693 1.401424
